<?xml version="1.0" standalone="no"?>
<!DOCTYPE svg PUBLIC "-//W3C//DTD SVG 20010904//EN"
 "http://www.w3.org/TR/2001/REC-SVG-20010904/DTD/svg10.dtd">
<svg version="1.0" xmlns="http://www.w3.org/2000/svg"
 width="700.000000pt" height="700.000000pt" viewBox="0 0 700.000000 700.000000"
 preserveAspectRatio="xMidYMid meet">
<metadata>
Created by potrace 1.11, written by Peter Selinger 2001-2013
</metadata>
<g transform="translate(0.000000,700.000000) scale(0.100000,-0.100000)"
fill="#000000" stroke="none">
<path d="M3843 5985 c-102 -28 -196 -90 -245 -160 l-32 -45 -77 0 -76 0 -28
40 c-33 48 -113 111 -180 142 -44 20 -65 23 -180 22 -114 0 -146 -4 -255 -33
-307 -80 -1713 -457 -1875 -503 -99 -27 -213 -65 -253 -84 -180 -82 -286 -264
-267 -457 10 -101 34 -195 525 -2026 514 -1916 491 -1833 535 -1926 101 -212
292 -300 548 -251 41 8 227 55 414 105 l340 91 747 0 746 0 333 -89 c424 -113
413 -110 520 -120 244 -23 412 91 502 341 20 55 786 2895 988 3663 27 104 31
137 32 250 0 126 -1 132 -32 198 -62 130 -167 212 -348 270 -88 29 -1794 487
-2020 543 -166 41 -287 51 -362 29z m967 -816 c231 -28 504 -138 673 -270 108
-84 238 -251 294 -377 58 -130 79 -345 48 -494 -9 -41 -37 -118 -66 -177 -42
-86 -64 -117 -123 -175 -104 -103 -193 -160 -478 -307 -402 -208 -439 -237
-538 -419 -86 -159 -161 -219 -273 -220 -95 0 -189 51 -234 128 -38 64 -43
165 -13 264 41 136 104 244 199 338 108 108 143 130 442 286 134 70 267 142
294 160 75 50 138 117 171 181 27 53 29 66 29 163 -1 85 -5 116 -23 162 -41
103 -160 210 -288 257 -129 49 -311 49 -411 0 -60 -29 -183 -151 -275 -274
-124 -165 -187 -208 -303 -209 -50 0 -80 5 -105 18 -158 83 -214 237 -146 396
104 242 320 430 603 526 140 48 349 65 523 43z m-506 -2671 c167 -84 229 -265
150 -433 -59 -124 -151 -179 -299 -179 -72 0 -86 3 -145 34 -130 70 -185 157
-182 293 4 243 257 394 476 285z"/>
</g>
</svg>
