<?xml version="1.0" encoding="UTF-8" standalone="no"?>
<!-- Created with Inkscape (http://www.inkscape.org/) -->

<svg
   xmlns:dc="http://purl.org/dc/elements/1.1/"
   xmlns:cc="http://creativecommons.org/ns#"
   xmlns:rdf="http://www.w3.org/1999/02/22-rdf-syntax-ns#"
   xmlns:svg="http://www.w3.org/2000/svg"
   xmlns="http://www.w3.org/2000/svg"
   xmlns:sodipodi="http://sodipodi.sourceforge.net/DTD/sodipodi-0.dtd"
   xmlns:inkscape="http://www.inkscape.org/namespaces/inkscape"
   version="1.1"
   width="600"
   height="436.15826"
   viewBox="0 0 600.00002 436.15827"
   id="Layer_1"
   xml:space="preserve"
   inkscape:version="0.48.4 r9939"
   sodipodi:docname="DRMAZ_C.svgz"
   inkscape:export-filename="DGM_C.png"
   inkscape:export-xdpi="92.856201"
   inkscape:export-ydpi="92.856201"><sodipodi:namedview
   pagecolor="#ffffff"
   bordercolor="#666666"
   borderopacity="1"
   objecttolerance="10"
   gridtolerance="10"
   guidetolerance="10"
   inkscape:pageopacity="0"
   inkscape:pageshadow="2"
   inkscape:window-width="1440"
   inkscape:window-height="881"
   id="namedview7"
   showgrid="false"
   inkscape:zoom="0.9640996"
   inkscape:cx="154.91746"
   inkscape:cy="249.01761"
   inkscape:current-layer="Layer_1"
   inkscape:window-x="-8"
   inkscape:window-y="-8"
   inkscape:window-maximized="1" /><metadata
   id="metadata13"><rdf:RDF><cc:Work
       rdf:about=""><dc:format>image/svg+xml</dc:format><dc:type
         rdf:resource="http://purl.org/dc/dcmitype/StillImage" /><dc:title></dc:title></cc:Work></rdf:RDF></metadata><defs
   id="defs11">
	
	
</defs>
<path
   d="m 600.00002,436.15827 c -43.93946,0 -86.50936,0 -134.95006,0 10.9914,-55.0879 -3.8121,-108.13452 -24.90514,-149.8408 -18.33646,35.47782 -37.03058,79.07706 -8.30462,149.8408 -30.10424,0 -178.89824,0 -267.48376,0 20.08113,-41.35736 24.91386,-87.7219 -4.50124,-149.8408 -22.48877,33.74186 -38.74908,100.8767 -27.33022,149.8408 -26.29215,0 -67.82397,0 -132.52498,0 21.930476,-39.21142 157.43883,-294.29931 187.54308,-351.393572 25.26278,0 40.83396,0.17446 59.51062,0.17446 51.90388,-84.9391600452964 0,0 51.90388,-84.9391600452964 C 304.61902,9.988228 348.95976,83.395138 348.95976,83.395138 c 0,0 0,0 61.4123,0 C 475.31732,204.01275 537.04368,321.27189 600.00002,436.15827 z M 303.29308,269.51631 c 0,-38.56588 1.75338,-89.35317 -4.32678,-106.80857 -5.70506,17.63859 -4.38784,66.42823 -4.38784,106.81729 -18.6854,2.17212 -33.18358,18.0486 -33.18358,37.30972 0,20.7441 16.82732,37.57142 37.57142,37.57142 20.75282,0 37.57142,-16.82732 37.57142,-37.57142 -0.008,-19.26986 -14.5418,-35.16378 -33.24464,-37.31844 z"
   inkscape:connector-curvature="0"
   id="path5"
   style="fill:#ffffff" /><path
   d="M 299.39374,37.876748 337.0175,104.3137 h 40.49374 l -53.20364,79.93196 94.55228,98.87905 c -17.91774,28.80448 -30.62766,89.26594 -14.35862,132.61222 H 192.38453 c 17.05413,-39.3946 4.52741,-102.91796 -13.14607,-132.52498 l 94.81398,-98.96629 -52.7762,-79.93196 h 38.05992 l 40.05758,-66.436952 z m 67.21334,151.219092 c 22.81152,6.78676 130.69306,87.71319 121.28058,226.64109 h 78.03028 L 409.35144,123.69696 366.60708,189.09584 z M 189.10456,123.68824 32.529334,415.73693 H 110.55088 C 101.1384,276.80029 209.01994,195.87387 231.83148,189.08712 L 189.10456,123.68824 z M 355.1097,307.57623 c 0,-22.70684 -13.50372,-42.26458 -32.90442,-51.06642 L 321.804,183.99269 299.05352,47.995818 276.11986,184.50736 l -0.64552,72.18563 c -19.1739,8.90654 -32.477,28.34214 -32.477,50.87452 0,30.95914 25.09706,56.05618 56.05618,56.05618 30.95914,0 56.05618,-25.08832 56.05618,-56.04746 z"
   inkscape:connector-curvature="0"
   id="path7"
   style="fill:#000000;fill-opacity:1;fill-rule:evenodd;stroke:none;stroke-opacity:1" />
</svg>