<?xml version="1.0" encoding="utf-8"?>
<!-- Generator: Adobe Illustrator 17.0.0, SVG Export Plug-In . SVG Version: 6.00 Build 0)  -->
<!DOCTYPE svg PUBLIC "-//W3C//DTD SVG 1.1//EN" "http://www.w3.org/Graphics/SVG/1.1/DTD/svg11.dtd">
<svg version="1.1" id="Layer_1" xmlns="http://www.w3.org/2000/svg" xmlns:xlink="http://www.w3.org/1999/xlink" x="0px" y="0px"
	 width="254px" height="300px" viewBox="0 0 254 300" enable-background="new 0 0 254 300" xml:space="preserve">
<g>
	<path fill="#FFFFFF" d="M127.096,0l-9.954,23.557c-4.064,9.689-9.187,19.937-11.632,23.294
		C86.666,54.387,72.12,62.367,61.461,68.287C55.777,71.41,49.329,75,47.296,75.444c-0.235-0.06-5.153-1.325-11.896-7.335
		c-11.425-7.449-3.239-20.905-3.239-20.905L18.999,47.85c-4.535,0.12-10.866,2.209-15.018,7.718
		c-2.62,3.531-5.241,9.686-2.739,19.081c1.973,7.538,9.806,36.363,17.639,63.396l0.795,2.56l1.826,2.005l25.412,25.705
		l-18.286,0.294l4.152,13.752c3.092,10.484,12.191,24.498,19.346,34.571c-4.181,1.383-7.98,3.502-11.189,6.389l-3.622,3.387
		l0.177,5.006c0.177,3.915-0.059,8.98-0.324,11.955c-3.151,29.918-22.291,56.213-22.291,56.213s44.993-10.984,66.755-33.481
		c2.385-2.357,4.328-4.887,5.801-7.598c18.198,20.083,31.536,33.246,32.125,33.776l7.538,7.421l7.48-7.423
		c0.589-0.586,13.869-13.691,31.86-33.714c1.443,2.59,3.357,5.005,5.595,7.184c25.118,23.821,66.754,33.834,66.754,33.834
		s-20.288-37.752-21.966-56.272c-0.265-2.916-0.442-7.98-0.324-11.898l0.206-5.004l-3.622-3.387
		c-3.209-2.887-7.008-5.006-11.189-6.389c7.185-10.395,16.195-24.03,19.375-34.51l4.005-13.397l-18.051-0.237l25.206-26.179
		l1.884-1.942l0.706-2.562c7.981-27.092,15.754-55.921,17.757-63.459c2.474-9.335-0.117-15.548-2.827-19.08
		c-4.005-5.506-10.454-7.596-14.988-7.713l-13.752-0.384c0,0,8.51,12.691-2.649,20.64c-6.685,6.008-11.691,7.275-12.603,7.275
		c-1.325-0.383-7.744-3.975-13.516-7.157c-10.631-5.857-25.118-13.839-43.875-21.376c-2.473-3.356-7.597-13.516-11.631-23.202
		L127.096,0z"/>
	<path fill="#1D201A" d="M76.191,231.543c7.096,7.482,5.653,19.67-1.708,26.916c-14.989,13.457-39.105,24.323-39.105,24.323
		s10.542-16.61,12.515-38.195c0.293-3.324,0.53-8.951,0.353-13.395C55.666,224.42,69.124,224.125,76.191,231.543 M206.179,244.598
		c-0.295-3.326-0.531-8.978-0.354-13.396c-7.42-6.802-20.935-7.068-27.944,0.354c-7.185,7.478-5.683,19.668,1.679,26.911
		c14.988,13.458,39.164,24.323,39.164,24.323S208.121,266.154,206.179,244.598 M111.174,56.185
		C77.258,69.462,56.877,85.001,48.86,86.041c-4.671,0.374-12.484-2.8-20.502-9.893c-9.765-8.719-9.428-15.715-9.033-17.62
		c-2.285,0.075-10.777,2.107-7.677,13.356c1.894,7.572,9.69,36.274,17.561,63.196l29.098,29.651
		c1.897,2.127,4.79,7.422,0.786,12.158c-4.592,5.351-10.807,4.314-13.973,3.278c-1.303-0.409-2.132-0.796-2.132-0.796
		c3.58,11.574,17.355,30.449,18.395,32.009c2.047-0.416,17.494-2.898,28.553,9.338c10.702,11.877,5.441,25.779,3.851,29.028
		c19.05,21.178,33.268,35.168,33.268,35.168s14.238-13.936,33.23-35.166c-1.586-3.211-6.849-17.114,3.807-29.05
		c11.055-12.161,26.602-9.781,28.611-9.307c0.992-1.559,14.793-20.474,18.329-32.048c0,0-0.856,0.448-2.118,0.82
		c-3.177,1.057-9.392,2.052-14.076-3.259c-3.819-4.798-0.923-10.029,0.946-12.152l29.034-29.683
		c7.922-26.949,15.617-55.671,17.605-63.215c3.059-11.243-5.433-13.277-7.756-13.328c0.447,1.875,0.942,8.897-8.967,17.614
		c-8.007,7.082-15.927,10.288-20.581,9.887c-7.949-1.044-28.359-16.542-62.189-29.861c-4.804-1.924-15.864-28.394-15.864-28.394
		S115.937,54.273,111.174,56.185 M105.287,187.374l-37.662-53.032l-0.001-19.491l37.662,31.271L105.287,187.374z M186.455,134.348
		l-37.721,53.033l0-41.281l37.721-31.243L186.455,134.348z"/>
</g>
<g>
	<g>
		<defs>
			<path id="SVGID_1_" d="M465.174,56.185c4.763-1.912,15.895-28.415,15.895-28.415s11.06,26.471,15.864,28.394
				c33.831,13.32,54.24,28.818,62.189,29.861c4.654,0.401,12.574-2.805,20.581-9.887c9.909-8.717,9.414-15.739,8.967-17.614
				c2.322,0.052,10.815,2.086,7.756,13.328c-1.988,7.544-9.683,36.267-17.605,63.215l-29.034,29.683
				c-1.869,2.123-4.765,7.354-0.946,12.152c4.684,5.312,10.9,4.316,14.076,3.259c1.262-0.372,2.118-0.82,2.118-0.82
				c-3.536,11.575-17.337,30.49-18.329,32.048c-2.01-0.475-17.557-2.855-28.611,9.307c-10.656,11.936-5.393,25.84-3.807,29.05
				c-18.993,21.23-33.23,35.166-33.23,35.166s-14.218-13.99-33.268-35.168c1.589-3.249,6.851-17.151-3.851-29.028
				c-11.059-12.236-26.506-9.754-28.553-9.338c-1.041-1.56-14.815-20.435-18.395-32.009c0,0,0.829,0.387,2.132,0.796
				c3.166,1.036,9.382,2.074,13.973-3.278c4.004-4.736,1.111-10.031-0.786-12.158L383.21,135.08
				c-7.871-26.923-15.667-55.625-17.561-63.196c-3.1-11.248,5.391-13.281,7.677-13.356c-0.395,1.905-0.732,8.901,9.033,17.62
				c8.018,7.093,15.831,10.267,20.502,9.893C410.877,85.001,431.258,69.462,465.174,56.185 M459.287,146.122l-37.662-31.271
				l0.001,19.491l37.662,53.032L459.287,146.122z M540.455,114.857L502.734,146.1l0,41.281l37.721-53.033L540.455,114.857z"/>
		</defs>
		<clipPath id="SVGID_2_">
			<use xlink:href="#SVGID_1_"  overflow="visible"/>
		</clipPath>
		
			<linearGradient id="SVGID_3_" gradientUnits="userSpaceOnUse" x1="38.845" y1="809.9388" x2="97.7373" y2="809.9388" gradientTransform="matrix(2.1299 -3.6891 -3.6891 -2.1299 3317.0171 2113.3054)">
			<stop  offset="0" style="stop-color:#4D666F"/>
			<stop  offset="0.1" style="stop-color:#4D666F"/>
			<stop  offset="0.4735" style="stop-color:#C3DEE7"/>
			<stop  offset="0.5355" style="stop-color:#C3DEE7"/>
			<stop  offset="0.9" style="stop-color:#4D666F"/>
			<stop  offset="1" style="stop-color:#4D666F"/>
		</linearGradient>
		<polygon clip-path="url(#SVGID_2_)" fill="url(#SVGID_3_)" points="252.759,214.58 411.644,-60.617 676.538,92.319 
			517.652,367.516 		"/>
	</g>
</g>
</svg>
