<?xml version="1.0" encoding="UTF-8" standalone="no"?>
<!-- Created with Inkscape (http://www.inkscape.org/) -->

<svg
   xmlns:dc="http://purl.org/dc/elements/1.1/"
   xmlns:cc="http://creativecommons.org/ns#"
   xmlns:rdf="http://www.w3.org/1999/02/22-rdf-syntax-ns#"
   xmlns:svg="http://www.w3.org/2000/svg"
   xmlns="http://www.w3.org/2000/svg"
   xmlns:inkscape="http://www.inkscape.org/namespaces/inkscape"
   version="1.1"
   width="600"
   height="386.0452"
   id="svg2"
   xml:space="preserve"><metadata
     id="metadata8"><rdf:RDF><cc:Work
         rdf:about=""><dc:format>image/svg+xml</dc:format><dc:type
           rdf:resource="http://purl.org/dc/dcmitype/StillImage" /><dc:title /></cc:Work></rdf:RDF></metadata><defs
     id="defs6"><clipPath
       id="clipPath22"><path
         d="M 0,193 300,193 300,0 0,0 0,193 z"
         inkscape:connector-curvature="0"
         id="path24" /></clipPath><clipPath
       id="clipPath66"><path
         d="M 0,193 300,193 300,0 0,0 0,193 z"
         inkscape:connector-curvature="0"
         id="path68" /></clipPath></defs><g
     transform="matrix(1.9933555,0,0,-1.9933555,0.99647841,385.04931)"
     id="g10"><g
       transform="translate(234.2695,3)"
       id="g70"
       style="fill:#000000;fill-opacity:1"><path
         d="m 0,0 c -0.28,6.858 -1.517,13.625 -3.688,20.154 l -0.063,0.172 C -10.527,37.192 -22.276,50.22 -37.729,58 l -0.334,0.168 -0.364,0.081 C -43.598,59.398 -54.755,60 -59.285,60 l -16.889,0 -8.095,97.394 -8.096,-97.394 -16.889,0 c -4.531,0 -15.689,-0.602 -20.86,-1.751 l -0.365,-0.081 -0.333,-0.168 c -15.452,-7.78 -27.202,-20.808 -33.978,-37.674 l -0.063,-0.172 C -167.025,13.621 -168.263,6.855 -168.542,0 l -60.706,0 70.52,131 41.628,0 32.83,52.971 L -51.439,131 -9.812,131 60.708,0 0,0 z"
         inkscape:connector-curvature="0"
         id="path72"
         style="fill:#000000;fill-opacity:1;fill-rule:nonzero;stroke:none" /></g><g
       transform="translate(233.3701,24.2754)"
       id="g74"
       style="fill:#ffffff;fill-opacity:1"><path
         d="m 0,0 c -7.089,17.621 -18.957,31.082 -36.147,39.74 -3.948,0.878 -8.047,1.267 -12.219,1.561 l 40.299,60.525 64.653,-120.101 -52.861,0 C 3.221,-11.858 1.957,-5.904 0,0 m -60.698,41.725 -9.936,0 -12.735,94.394 -12.737,-94.394 -9.936,0 -43.275,65 34.787,0 31.16,50.276 31.16,-50.276 34.789,-10e-4 -43.277,-64.999 z M -130.595,39.74 C -147.784,31.083 -159.652,17.623 -166.742,0 c -1.953,-5.892 -3.221,-11.844 -3.727,-18.275 l -52.857,0 64.654,120.103 40.298,-60.527 c -4.167,-0.293 -8.3,-0.689 -12.221,-1.561 m 123.475,72.984 -41.75,10e-4 -34.5,55.666 -34.5,-55.666 -41.75,0 -73.75,-137 68.666,0 c 0,7.767 1.277,15.23 3.598,22.208 6.306,15.697 17.505,28.541 32.543,36.112 4.892,1.088 15.861,1.68 20.209,1.68 l 16.484,0 8.5,62.999 8.5,-62.999 16.482,0 c 4.348,0 15.317,-0.592 20.209,-1.68 15.037,-7.571 26.237,-20.415 32.543,-36.112 2.321,-6.978 3.596,-14.441 3.596,-22.208 l 68.67,0 -73.75,136.999 z"
         inkscape:connector-curvature="0"
         id="path76"
         style="fill:#ffffff;fill-opacity:1;fill-rule:nonzero;stroke:#ffffff;stroke-opacity:1" /></g></g></svg>