<?xml version="1.0" encoding="UTF-8" standalone="no"?>
<!-- Generator: Adobe Illustrator 16.0.3, SVG Export Plug-In . SVG Version: 6.00 Build 0)  -->

<svg
   xmlns:dc="http://purl.org/dc/elements/1.1/"
   xmlns:cc="http://creativecommons.org/ns#"
   xmlns:rdf="http://www.w3.org/1999/02/22-rdf-syntax-ns#"
   xmlns:svg="http://www.w3.org/2000/svg"
   xmlns="http://www.w3.org/2000/svg"
   xmlns:sodipodi="http://sodipodi.sourceforge.net/DTD/sodipodi-0.dtd"
   xmlns:inkscape="http://www.inkscape.org/namespaces/inkscape"
   version="1.1"
   id="Layer_1"
   x="0px"
   y="0px"
   width="53.07px"
   height="50px"
   viewBox="0 0 53.07 50"
   enable-background="new 0 0 53.07 50"
   xml:space="preserve"
   inkscape:version="0.48.4 r9939"
   sodipodi:docname="c.svg"><metadata
     id="metadata10"><rdf:RDF><cc:Work
         rdf:about=""><dc:format>image/svg+xml</dc:format><dc:type
           rdf:resource="http://purl.org/dc/dcmitype/StillImage" /><dc:title></dc:title></cc:Work></rdf:RDF></metadata><defs
     id="defs8" /><sodipodi:namedview
     pagecolor="#ffffff"
     bordercolor="#666666"
     borderopacity="1"
     objecttolerance="10"
     gridtolerance="10"
     guidetolerance="10"
     inkscape:pageopacity="0"
     inkscape:pageshadow="2"
     inkscape:window-width="1198"
     inkscape:window-height="950"
     id="namedview6"
     showgrid="false"
     inkscape:zoom="4.72"
     inkscape:cx="26.535"
     inkscape:cy="25"
     inkscape:window-x="0"
     inkscape:window-y="0"
     inkscape:window-maximized="0"
     inkscape:current-layer="layer1" /><g
     id="layer1"
     transform="translate(765.5981,-1198.7241)"
     inkscape:label="Layer 1"
     inkscape:groupmode="layer"><path
       id="path2984"
       inkscape:connector-curvature="0"
       sodipodi:nodetypes="ccccccccccccsccsccccccccccccccccsssccccccccccccccccccssscccccc"
       fill="#FFFFFF"
       d="   M-756.042,1198.724l-0.249,3.627l-0.003,0.053l-0.003,0.021c-0.331,4.107-1.02,7.574-2.004,10.035l-2.668-3.767v-0.002   l-0.057-0.078l-2.625-3.7l-0.844,4.455l-0.016,0.088l-0.003,0.008c-2.823,14.624,0.09,25.056,6.086,31.461   c5.088,5.435,12.224,7.841,19.351,7.796c0.009,0,0.018,0,0.026,0c7.128,0.045,14.264-2.36,19.353-7.796   c5.996-6.405,8.907-16.837,6.084-31.461v-0.008l-0.017-0.088l-0.844-4.455l-2.625,3.7l-0.057,0.078v0.002l-2.668,3.767   c-0.983-2.461-1.673-5.928-2.004-10.035l-0.003-0.021l-0.002-0.053l-0.25-3.627l-2.863,2.242l-0.029,0.024l-0.029,0.021v0.003   c-3.877,2.921-5.68,6.106-6.108,9.17c-0.43,3.069,0.386,5.809,0.973,8.136c0.587,2.327,0.913,4.163,0.399,5.645   c-0.376,1.082-1.241,2.25-3.276,3.496v-19.722l3.699-5.996l0.008-0.011l0.006-0.011l0.037-0.064l1.755-2.92h-3.407h-0.003h-16.28   h-0.002h-3.408l1.752,2.92l0.04,0.064l0.006,0.011l0.005,0.011l3.703,6.001v19.717c-2.036-1.246-2.901-2.415-3.276-3.496   c-0.515-1.481-0.188-3.318,0.398-5.645c0.587-2.327,1.402-5.066,0.973-8.136c-0.429-3.064-2.231-6.249-6.107-9.17v-0.003   l-0.029-0.021l-0.03-0.024L-756.042,1198.724L-756.042,1198.724z" /><path
       id="path8-1-7"
       inkscape:connector-curvature="0"
       d="M-747.205,1200.666l0.039,0.064l3.988,6.463v23.42   c-4.328-1.886-6.293-3.895-7.029-6.017c-0.739-2.131-0.243-4.386,0.353-6.749s1.291-4.834,0.933-7.396   c-0.358-2.562-1.776-5.209-5.387-7.921l-0.059-0.046l-0.005,0.074c-0.476,5.912-1.554,10.728-3.719,13.539l-4.451-6.289   l-0.057-0.08l-0.019,0.095c-2.747,14.225,0.096,23.909,5.598,29.786c4.673,4.992,11.26,7.234,17.956,7.186   c6.697,0.049,13.285-2.193,17.959-7.186c5.502-5.876,8.345-15.561,5.597-29.786l-0.018-0.095l-0.057,0.08l-4.451,6.289   c-2.166-2.811-3.243-7.626-3.719-13.539l-0.005-0.074l-0.06,0.046c-3.609,2.712-5.027,5.359-5.386,7.921   c-0.359,2.562,0.337,5.033,0.933,7.396s1.092,4.617,0.352,6.749c-0.735,2.122-2.7,4.13-7.028,6.017v-23.42l3.988-6.463l0.039-0.064   h-0.003h-16.28H-747.205L-747.205,1200.666z" /></g></svg>