<?xml version="1.0" encoding="UTF-8" standalone="no"?>
<!-- Created with Inkscape (http://www.inkscape.org/) -->

<svg
   xmlns:dc="http://purl.org/dc/elements/1.1/"
   xmlns:cc="http://creativecommons.org/ns#"
   xmlns:rdf="http://www.w3.org/1999/02/22-rdf-syntax-ns#"
   xmlns:svg="http://www.w3.org/2000/svg"
   xmlns="http://www.w3.org/2000/svg"
   xmlns:inkscape="http://www.inkscape.org/namespaces/inkscape"
   version="1.1"
   width="600"
   height="320.00342"
   viewBox="0 0 600 320.00342"
   id="Layer_1"
   xml:space="preserve"><metadata
   id="metadata17"><rdf:RDF><cc:Work
       rdf:about=""><dc:format>image/svg+xml</dc:format><dc:type
         rdf:resource="http://purl.org/dc/dcmitype/StillImage" /><dc:title /></cc:Work></rdf:RDF></metadata><defs
   id="defs15" />
<g
   transform="matrix(6.4000683,0,0,6.4000683,0,-2.4512262)"
   id="g3">
	<g
   id="g5">
		<path
   d="M 6.229,0.383 C 2.267,7.742 0,16.279 0,25.383 c 0,9.104 2.267,17.641 6.229,25 H 87.52 c 3.962,-7.359 6.229,-15.896 6.229,-25 0,-9.104 -2.268,-17.641 -6.229,-25 H 6.229 z"
   inkscape:connector-curvature="0"
   id="path7" />
	</g>
	<path
   d="m 83.742,6.32 c 2.607,5.764 4.07,12.23 4.07,19.063 0,6.957 -1.519,13.533 -4.216,19.375 H 10.153 C 7.456,38.916 5.938,32.34 5.938,25.383 5.938,18.551 7.401,12.084 10.008,6.32 H 83.742 M 85.657,3.352 H 83.742 10.008 8.093 l -0.79,1.745 c -2.876,6.356 -4.334,13.182 -4.334,20.286 0,7.23 1.511,14.168 4.489,20.619 l 0.796,1.725 h 1.899 73.443 1.899 l 0.796,-1.725 c 2.979,-6.451 4.489,-13.389 4.489,-20.619 0,-7.104 -1.458,-13.93 -4.334,-20.287 l -0.789,-1.744 0,0 z"
   inkscape:connector-curvature="0"
   id="path9"
   style="fill:#ffffff" />
	<path
   d="m 6.563,38.508 c 1.957,-1.534 3.268,-3.605 4.367,-6.656 1.021,-2.83 1.714,-5.56 3,-8.164 0.325,-0.658 1.114,-1.177 1.969,-0.766 0.603,0.29 1.202,0.622 1.862,0.924 0.694,0.318 0.838,0.92 0.521,1.662 -0.916,2.139 -2.053,4.186 -2.786,6.385 -0.729,2.188 -0.834,4.74 1.744,5.418 v 2.031 C 12.43,38.76 9.549,39.449 7.724,41.008 l -1.161,-2.5 z m 7.135,-26.041 c 2.513,0.313 4.361,0.611 3.463,2.941 -0.489,1.271 -1.018,2.46 -1.563,3.621 -0.31,0.66 -0.241,1.393 0.521,1.9 0.511,0.341 1.615,0.896 2.188,1.119 0.768,0.3 1.242,-0.012 1.484,-0.572 0.178,-0.412 0.58,-1.214 0.781,-1.615 0.378,-0.752 1.04,-0.59 1.51,0.078 2.987,4.255 5.812,10.195 7.578,17.293 0.489,1.965 0.469,3.568 -0.13,4.557 0.862,0.641 1.828,1.088 2.891,1.354 1.253,-2.354 3.429,-4.211 6.38,-5.65 -0.605,-2.418 -1.382,-4.801 -2.396,-7.135 -1.021,-3.287 -0.403,-5.002 0.625,-6.303 0.281,-0.355 0.287,-0.826 0,-1.279 -0.55,-0.867 -1.15,-1.557 -1.771,-2.08 -0.437,-0.369 -1.01,-0.446 -1.484,0.025 C 33.495,21 33.251,21.315 32.916,21.555 29.53,17.545 26.64,13.248 25.572,10.227 L 15.156,9.836 c -0.703,0.742 -1.25,1.641 -1.458,2.631 z m 25.324,1.084 c 0.613,0.529 0.626,1.104 0.224,1.742 -0.782,1.244 -1.538,2.238 -2.397,2.98 -0.448,0.387 -0.379,1.041 -0.104,1.563 0.603,1.141 1.534,1.859 2.474,2.344 0.777,-0.777 1.555,-1.043 2.005,-0.182 1.659,3.17 2.899,6.384 4.401,9.348 1.313,2.592 0.973,4.377 -0.495,5.574 -1.025,0.836 -2.014,1.528 -2.813,2.344 0.672,0.698 1.382,1.367 2.136,2.004 3.446,-2.811 8.671,-2.659 15.026,-0.625 0.246,-0.754 0.577,-1.483 0.989,-2.188 -2.227,-1.998 -4.55,-2.482 -5.364,-4.426 -0.431,-1.028 -0.645,-3.108 -1.17,-4.433 -1.721,-4.345 -3.336,-7.599 -6.018,-13.12 -1.203,-2.477 -0.932,-4.885 -0.313,-6.225 -0.898,-0.383 -1.595,-0.844 -2.109,-1.373 -1.198,1.191 -5.964,1.217 -8.444,0 -0.576,0.988 -1.156,1.755 -1.738,2.461 1.552,0.657 2.792,1.419 3.71,2.212 z m 17.228,1.494 h 4.349 v 15.52 l 4.284,-4.283 V 9.158 c -2.444,1.584 -5.402,2.906 -8.633,4.09 v 1.797 z m 21.801,-7.04 4.378,2.417 c -0.983,3.014 -0.317,6.566 -0.401,12.356 l 2.39,-10e-4 0.824,-0.729 0.867,1.12 c 0,0 -1.039,2.081 -1.72,3.143 -1.344,-0.35 -1.521,-0.281 -2.446,-0.202 -0.211,1.755 0.317,6.957 0.317,6.957 0,0 -2.242,-0.253 -5.009,1.259 0.208,-1.787 0.543,-6.376 0.313,-8.279 -1.564,0.073 -5.349,0.296 -8.924,0.761 l -1.883,-1.36 C 66.863,25.581 77.48,15.735 78.051,8.005 z m -0.38,14.867 c 0,0 0.158,-3.489 0,-6.249 0,0 -2.729,4.314 -4.727,6.281 0.634,0.222 4.727,-0.032 4.727,-0.032 z"
   inkscape:connector-curvature="0"
   id="path11"
   style="fill:#ffffff" />
</g>
</svg>