<?xml version="1.0" encoding="utf-8"?>
<!-- Generator: Adobe Illustrator 17.0.0, SVG Export Plug-In . SVG Version: 6.00 Build 0)  -->
<!DOCTYPE svg PUBLIC "-//W3C//DTD SVG 1.1//EN" "http://www.w3.org/Graphics/SVG/1.1/DTD/svg11.dtd">
<svg version="1.1" id="Layer_1" xmlns="http://www.w3.org/2000/svg" xmlns:xlink="http://www.w3.org/1999/xlink" x="0px" y="0px"
	 width="300px" height="160px" viewBox="0 0 300 160" enable-background="new 0 0 300 160" xml:space="preserve">
<g>
	<path fill="#1D201A" d="M280.047,160H19.339c0,0-19.366-39.618-19.339-79.985C-0.019,39.615,19.344,0,19.344,0h260.708
		c0,0,19.957,39.756,19.948,79.999C299.992,120.244,280.047,160,280.047,160"/>
	<path fill="#FFFFFF" d="M189.277,117.666l-3.769-2.566c-2.608-1.721-4.986-3.28-6.578-4.977c-2.706-2.954-2.987-5.69-3.86-9.491
		c-2.121-9.032-13.933-34.723-18.059-41.827c-5.089-8.912-7.629-19.403-5.052-25.872l0.318-1.63l-6.212-3.589
		c-6.754,2.965-20.937,2.314-27.954-0.568l-5.239,8.106c2.663,1.348,15.22,6.525,13.511,9.892
		c-3.954,7.598-6.678,10.258-7.833,11.268c-2.09,1.902-2.237,4.511-0.079,7.118l3.519,3.902c2.306,2.299,4.227,1.961,6.503,0.429
		c0.893-0.439,2.092-0.973,3.347,1.55c5.187,10.832,12.984,25,15.997,36.336c2.015,7.517-8.022,13.643-12.586,17.554l6.454,7.017
		c12.792-10.203,35.381-6.591,48.807-2.214l2.735-6.495C192.048,120.084,190.858,118.84,189.277,117.666z"/>
	<path fill="#FFFFFF" d="M274.178,9.643L25.919,9.632C15.284,34.107,9.727,53.006,9.718,79.97
		c-0.002,27.004,5.588,45.837,16.186,70.37l248.259,0.012c10.628-24.514,16.232-43.382,16.233-70.385
		C290.406,53.003,284.808,34.13,274.178,9.643z M268.08,141.089l-236.052-0.021c-1.933-4.544-3.637-8.926-5.132-13.264
		c8.552-4.452,19.081-4.812,28.474-3.357l0.012-7.026l-2.174-0.868c-0.585-0.341-1.495-0.908-2.558-1.891
		c-6.443-5.808,4.848-27.493,7.829-34.192c1.463-3.852-0.067-5.64-2.519-6.702l-4.962-2.235c-2.205-1.266-5.033-1.252-6.193,2.019
		c-3.864,7.421-6.071,15.519-8.93,23.368c-3.187,8.512-5.778,15.588-11.881,21.546c-3.347-12.085-5.006-24.225-4.982-38.517
		c-0.005-22.926,4.268-40.387,12.982-61.094l236.093,0.015c8.703,20.668,13.042,38.147,13.054,61.112
		C281.115,102.952,276.793,120.383,268.08,141.089z"/>
	<path fill="#FFFFFF" d="M117.639,76.673c1.631-1.981,2.595-4.532,0.132-7.045l-3.93-4.395c-2.028-1.863-4.676-1.759-6.793,0.227
		l-1.735,1.395c-6.721-4.871-10.088-12.714-14.544-19.639c-3.366-5.099-8.172-10.105-8.44-16.435l-33.514-0.923l-2.736,3.509
		l-1.863,2.507c-0.814,1.113,0.286,3.219,2.332,3.585l2.642,0.544c2.151,0.509,4.239,1.11,5.247,1.78
		c2.324,1.488-3.221,14.735-4.134,17.116c-2.214,3.941-0.725,5.739,2.202,7.2l5.068,2.377c3.201,1.415,5.424,0.499,6.58-2.572
		l1.127-2.538c0.523-0.94,0.954-1.702,1.355-2.176l1.606-0.525c11.219,6.3,29.453,53.02,27.049,68.942l-0.675,2.582l8.836,4.942
		c3.478-7.555,12.487-16.285,20.831-17.793c-1.08-5.421-2.539-10.492-4.414-15.61C116.961,95.724,111.612,84.436,117.639,76.673z"/>
	<path fill="#FFFFFF" d="M209.995,91.888c-0.237-1.343-0.358-2.857-0.356-4.556l-0.026-58.934l-1.096-0.017l-1.497-0.02
		l-0.326,0.297c-6.377,5.843-17.613,11.806-24.152,13.361l-0.841,0.204l-0.011,0.861l-0.033,2.183l1.132-0.001l9.898-0.004
		l0.016,52.798l-11.007,3.999l-0.009,0.765l-0.016,1.049l-0.014,1.128h1.128L220.577,105l0.028-1.087l0.048-1.93l-0.898-0.198
		C214.134,100.481,211.112,97.826,209.995,91.888z"/>
	<path fill="#FFFFFF" d="M268.913,77.095c-2.082-12.007-12.894-22.587-33.996-23.18l1.128-11.258l29.331-0.018l0.001-1.113
		l0.003-17.337l-1.109-0.004l-1.036-0.002l-0.333,0.482l-3.273,4.755l-31.01,0.018l-0.109,0.991l-4.198,38.197l1.242-0.001
		c21.324,0.034,29.144,8.564,30.374,15.521l0.181,2.005c-0.085,6.257-3.141,10.095-8.831,11.158
		c-0.883,0.155-1.832,0.236-2.841,0.236c-6.284-0.053-10.654-3.728-11.706-9.475c-0.142-0.803-0.213-1.651-0.213-2.536l0.001-0.831
		l-0.798-0.238l-1.13-0.336l-0.456,0.683l-7.868,11.758l-0.504,0.752l0.635,0.646c4.954,5.046,12.192,8.088,20.227,8.052
		c2.291,0.006,4.441-0.181,6.446-0.534c13.473-2.326,20.29-12.458,20.239-23.81C269.31,80.148,269.181,78.613,268.913,77.095z"/>
</g>
</svg>
