<?xml version="1.0" encoding="utf-8"?>
<!DOCTYPE svg PUBLIC "-//W3C//DTD SVG 1.1//EN" "http://www.w3.org/Graphics/SVG/1.1/DTD/svg11.dtd">
<svg version="1.1" xmlns="http://www.w3.org/2000/svg" xmlns:xlink="http://www.w3.org/1999/xlink" x="0px" y="0px" width="128px"
	 height="128px" viewBox="0 0 128 128" enable-background="new 0 0 128 128" xml:space="preserve">
<g id="wild">
	<path d="M111.79,90.899c-1.312,4.81,2.405,12.024,2.405,12.024c-5.247,2.405-20.331-6.34-20.331-6.34
		c-16.133-0.377-27.26-13.165-27.26-13.165L82.38,68.969c1.789,2.517,8.422,8.594,13.232,8.594c4.81,0,9.838-2.623,10.712-10.056
		c0.874-7.433-5.106-11.399-7.074-11.399s-5.652-0.276-12.82,5.934c-7.493,6.49-26.234,23.829-26.234,23.829
		c0,11.805-13.117,15.522-13.117,15.522c0.219-2.842-1.312-6.559-1.312-6.559c-6.121,2.623-17.708,4.81-28.42-2.623
		C6.635,84.778,7.291,69.912,7.291,69.912l-3.716-6.34l6.121-4.591c1.312-6.34,7.214-12.024,7.214-12.024
		c6.121-20.987,19.238-22.299,19.238-22.299c-0.437,8.745,3.279,12.898,3.279,12.898c18.582-0.437,29.313,15.519,29.313,15.519
		L52.475,67.228c-5.028-5.903-14.242-10.14-17.736-10.292c-6.341-0.276-10.095,4.476-10.201,12.13
		c-0.087,6.262,5.552,9.154,8.409,8.96c4.066-0.276,4.687-8.409,4.687-8.409s4.243,2.634,4.273,7.444
		c0.013,2.164,4.298-1.246,4.298-1.246L72.22,52.86l-2.405-19.02l19.457,6.121c0,0,12.481-6.405,24.922,7.214
		c3.227,1.059,6.387-3.155,6.387-3.155c2.107,4.478-1.141,11.026-1.141,11.026S134.714,75.882,111.79,90.899z"/>
</g>
</svg>
