<?xml version="1.0" encoding="UTF-8" standalone="no"?>
<!-- Created with Inkscape (http://www.inkscape.org/) -->

<svg
   xmlns:dc="http://purl.org/dc/elements/1.1/"
   xmlns:cc="http://creativecommons.org/ns#"
   xmlns:rdf="http://www.w3.org/1999/02/22-rdf-syntax-ns#"
   xmlns:svg="http://www.w3.org/2000/svg"
   xmlns="http://www.w3.org/2000/svg"
   xmlns:sodipodi="http://sodipodi.sourceforge.net/DTD/sodipodi-0.dtd"
   xmlns:inkscape="http://www.inkscape.org/namespaces/inkscape"
   version="1.1"
   width="600"
   height="689.25903"
   id="svg3820"
   inkscape:version="0.91 r13725"
   sodipodi:docname="B2205 - Oath of the Gatewatch - Common.svg">
  <sodipodi:namedview
     pagecolor="#d9d9df"
     bordercolor="#666666"
     borderopacity="1"
     objecttolerance="10"
     gridtolerance="10"
     guidetolerance="10"
     inkscape:pageopacity="0"
     inkscape:pageshadow="2"
     inkscape:window-width="1855"
     inkscape:window-height="1056"
     id="namedview3406"
     showgrid="false"
     inkscape:zoom="0.015131938"
     inkscape:cx="3012.3289"
     inkscape:cy="-19094.859"
     inkscape:window-x="1985"
     inkscape:window-y="24"
     inkscape:window-maximized="1"
     inkscape:current-layer="svg3820" />
  <defs
     id="defs3822" />
  <metadata
     id="metadata3825">
    <rdf:RDF>
      <cc:Work
         rdf:about="">
        <dc:format>image/svg+xml</dc:format>
        <dc:type
           rdf:resource="http://purl.org/dc/dcmitype/StillImage" />
        <dc:title></dc:title>
      </cc:Work>
    </rdf:RDF>
  </metadata>
  <path
     style="fill:#ffffff"
     d="M 118.49989,594.99452 C 60.231153,592.48221 12.371948,590.36423 12.1461,590.28789 c -0.225848,-0.0764 -0.404201,-2.17143 -0.396339,-4.65575 0.01068,-3.39621 12.26972,-20.41121 49.407416,-68.57561 47.119643,-61.11014 49.639533,-64.05866 54.746483,-64.05866 4.77074,0 13.56018,7.5663 80.76305,69.52407 53.79374,49.59523 75.55867,70.66468 75.92942,73.50321 l 0.51973,3.97912 -24.3364,-0.22095 c -13.38503,-0.12153 -72.01083,-2.27648 -130.27957,-4.7888 z m 210.54532,1.03063 c 0.37075,-2.83853 22.13568,-23.90798 75.92943,-73.50321 67.20287,-61.95777 75.9923,-69.52407 80.76305,-69.52407 5.10695,0 7.62684,2.94852 54.74648,64.05866 36.39231,47.19771 49.39689,65.21645 49.40742,68.45741 0.0131,4.10197 -0.56756,4.45822 -8.60899,5.27975 -11.32861,1.15736 -221.4404,9.27669 -239.09715,9.23943 -13.49557,-0.0286 -13.65373,-0.0767 -13.14024,-4.00797 z M 178.63761,491.31433 C 85.744698,403.66729 75.676672,393.67364 76.121791,389.55589 c 0.430949,-3.98669 6.613412,-8.69337 48.712349,-37.08458 l 48.21877,-32.51834 43.76095,-124.42162 43.76093,-124.42162 14.37409,0 14.37409,0 0,258.69842 0,258.69842 -3.83797,0 c -2.81847,0 -31.20084,-25.81763 -106.84739,-97.19224 z m 133.68077,-161.50618 0,-258.69842 14.37409,0 14.37409,0 43.76093,124.42162 43.76094,124.42162 48.21878,32.51834 c 42.09893,28.39121 48.2814,33.09789 48.71235,37.08458 0.44511,4.11775 -9.62291,14.1114 -102.51583,101.75844 -75.64655,71.37461 -104.02892,97.19224 -106.84738,97.19224 l -3.83797,0 z"
     id="path3830"
     inkscape:connector-curvature="0"
     sodipodi:nodetypes="sccsssscsssssscsssssscccccccssccccccsssscc" />
  <path
     style="fill:#000000"
     d=""
     id="path3427"
     inkscape:connector-curvature="0" />
  <path
     style="fill:#000000"
     d=""
     id="path3425"
     inkscape:connector-curvature="0" />
  <path
     style="fill:#000000"
     d="m 121.78495,569.50412 c -26.650043,-1.16419 -52.049337,-2.35409 -56.442876,-2.64421 l -7.988253,-0.52749 29.990438,-39.01008 c 16.494741,-21.45555 30.509901,-39.01008 31.144821,-39.01008 1.2886,0 90.34994,81.83431 90.34994,83.01836 0,1.19149 -34.5739,0.4661 -87.05407,-1.8265 z m 271.01738,1.8265 c 0,-1.18405 89.06134,-83.01836 90.34993,-83.01836 0.63492,0 14.65094,17.55453 31.14672,39.01008 23.33494,30.351 29.31253,39.09371 26.92978,39.38689 -5.33134,0.65594 -126.01198,5.37204 -137.46568,5.37204 -6.02842,0 -10.96075,-0.3378 -10.96075,-0.75065 z M 188.72547,463.513 l -75.1383,-70.84654 40.64518,-27.42213 40.64517,-27.42213 34.49312,-98.03033 34.49312,-98.0303 0.42351,97.59198 c 0.23292,53.67558 0.23292,142.01012 0,196.29899 L 263.86376,534.35956 188.72547,463.513 Z M 337.086,337.81936 c 0.11473,-174.23047 0.40452,-196.14563 2.51673,-190.332 1.31288,3.61356 16.96122,47.91698 34.77408,98.45203 l 32.38702,91.88192 40.62887,27.41157 40.62888,27.41157 -67.73061,63.89135 c -37.25184,35.14024 -71.24152,67.10757 -75.53263,71.03852 l -7.80202,7.14715 0.1296,-196.90211 z"
     id="path3816"
     inkscape:connector-curvature="0" />
</svg>
