<?xml version="1.0" encoding="utf-8"?>
<!-- Generator: Adobe Illustrator 13.0.0, SVG Export Plug-In . SVG Version: 6.00 Build 14948)  -->
<!DOCTYPE svg PUBLIC "-//W3C//DTD SVG 1.1//EN" "http://www.w3.org/Graphics/SVG/1.1/DTD/svg11.dtd">
<svg version="1.1"
	 id="svg3776" sodipodi:docname="drawing.svg" inkscape:version="0.48.4 r9939" xmlns:sodipodi="http://sodipodi.sourceforge.net/DTD/sodipodi-0.dtd" xmlns:dc="http://purl.org/dc/elements/1.1/" xmlns:cc="http://creativecommons.org/ns#" xmlns:rdf="http://www.w3.org/1999/02/22-rdf-syntax-ns#" xmlns:inkscape="http://www.inkscape.org/namespaces/inkscape" xmlns:svg="http://www.w3.org/2000/svg"
	 xmlns="http://www.w3.org/2000/svg" xmlns:xlink="http://www.w3.org/1999/xlink" x="0px" y="0px" width="600px" height="548.18px"
	 viewBox="0 0 600 548.18" enable-background="new 0 0 600 548.18" xml:space="preserve">
<path fill="#FFFFFF" d="M126.502,479.59c6.147-16.066,13.494-30.668,21.826-43.793L132.5,349.34c0,0,30.75,34.5,45.807,49.313
	c5.598-5.453,17.443-15.011,17.443-15.011s-5-112.303-5.25-113.303s52.119,88.101,52.119,88.101
	c9.118-3.17,18.433-5.508,27.856-7.009L296,232.757l26.602,118.852c9.234,1.521,18.424,3.837,27.489,6.952
	c6.66-9.387,48.743-72.887,54.66-81.304l-7.95,105.507c6.794,4.843,13.414,10.217,19.818,16.124
	c6.506-6.048,37.756-35.923,45.256-43.173c-2.75,13.75-13,62.625-16.113,75.952c9.182,12.523,17.601,26.494,25.073,41.923
	c115.665-111.666,56.998-382.333-173-382.333C43.167,91.257,17.834,409.257,126.502,479.59z"/>
<path fill="#231F20" d="M461.534,423.068L487.5,309.59l-68.894,67.115c-2.229-1.71-4.492-3.366-6.785-4.969L429.25,215.84
	l-84.146,126.033c-3.567-0.86-7.155-1.623-10.758-2.289L300.25,155.84l-43.543,184.303c-2.383,0.481-4.757,1.006-7.119,1.574
	L171.5,209.84l7.425,165.54c-0.727,0.566-1.45,1.139-2.169,1.717L109.25,295.84l22.605,135.789
	c-3.462,6.54-6.592,13.416-9.355,20.628c-94.666-111-26-345.333,175-345.333c200.5,0,260.5,232.667,176.668,338.667
	C470.377,437.651,466.15,430.144,461.534,423.068z"/>
</svg>
