<?xml version="1.0" encoding="UTF-8" standalone="no"?>
<!-- Created with Inkscape (http://www.inkscape.org/) -->

<svg
   xmlns:dc="http://purl.org/dc/elements/1.1/"
   xmlns:cc="http://creativecommons.org/ns#"
   xmlns:rdf="http://www.w3.org/1999/02/22-rdf-syntax-ns#"
   xmlns:svg="http://www.w3.org/2000/svg"
   xmlns="http://www.w3.org/2000/svg"
   xmlns:inkscape="http://www.inkscape.org/namespaces/inkscape"
   version="1.1"
   width="600"
   height="608"
   id="svg2"
   xml:space="preserve"><metadata
     id="metadata8"><rdf:RDF><cc:Work
         rdf:about=""><dc:format>image/svg+xml</dc:format><dc:type
           rdf:resource="http://purl.org/dc/dcmitype/StillImage" /><dc:title /></cc:Work></rdf:RDF></metadata><defs
     id="defs6"><clipPath
       id="clipPath16"><path
         d="M 0,0 300,0 300,304 0,304 0,0 z"
         inkscape:connector-curvature="0"
         id="path18" /></clipPath><clipPath
       id="clipPath30"><path
         d="M 0,304 300,304 300,0 0,0 0,304 z"
         inkscape:connector-curvature="0"
         id="path32" /></clipPath></defs><path
     d="m 42.886008,597.06059 4.456,-14.212 c 11.322,-36.102 17.062,-74.49 17.062,-114.088 0,-65.194 -16.558,-129.406 -46.622,-180.794 l -4.166,-7.12 242.595992,-253.574 0,197.882 -6.37998,2.926 c -42.67602,19.584 -70.25,62.524 -70.25,109.396 0,66.356 54.01798,120.344 120.418,120.344 66.398,0 120.42,-53.988 120.42,-120.344 0,-46.874 -27.57602,-89.814 -70.252,-109.396 l -6.378,-2.926 0,-197.882 242.59598,253.574 -4.166,7.12 c -30.068,51.388 -46.624,115.6 -46.624,180.794 0,39.594 5.74,77.982 17.06,114.088 l 4.458,14.212 -514.227992,0 z"
     inkscape:connector-curvature="0"
     id="path36"
     style="fill:#000000;fill-opacity:1;fill-rule:nonzero;stroke:none" /><path
     d="m 332.842,0 0,54.546 0,163.592 0,14.03 12.758,5.854 c 38.802,17.806 63.872,56.844 63.872,99.454 0,60.324 -49.108,109.402 -109.472,109.402 -60.364,0 -109.472,-49.078 -109.472,-109.402 0,-42.61 25.072,-81.648 63.872,-99.454 l 12.758,-5.854 0,-14.03 0,-163.592 L 267.158,0 229.44,39.426 11.408,267.324 0,279.248 l 8.332,14.24 c 29.098,49.74 45.126,111.986 45.126,175.272 0,38.492 -5.574,75.778 -16.562,110.816 L 27.982,608 l 29.808,0 484.422,0 29.802,0 -8.91,-28.424 c -10.99,-35.042 -16.56,-72.328 -16.56,-110.816 0,-63.286 16.024,-125.532 45.126,-175.272 L 600,279.248 588.592,267.324 370.562,39.426 332.842,0 z m 21.894,54.546 218.032,227.9 c -29.928,51.156 -48.12,115.892 -48.12,186.314 0,41.652 6.262,81.316 17.564,117.36 l -484.422,0 c 11.302,-36.044 17.562,-75.708 17.562,-117.36 0,-70.422 -18.192,-135.158 -48.12,-186.314 l 218.032,-227.9 0,163.592 c -45.214,20.748 -76.63,66.362 -76.63,119.338 0,72.508 58.814,131.284 131.366,131.284 72.552,0 131.368,-58.776 131.368,-131.284 0,-52.976 -31.418,-98.592 -76.632,-119.338 l 0,-163.592"
     inkscape:connector-curvature="0"
     id="path40"
     style="fill:#ffffff;fill-opacity:1;fill-rule:nonzero;stroke:none" /></svg>