<?xml version="1.0" encoding="utf-8"?>
<!DOCTYPE svg PUBLIC "-//W3C//DTD SVG 1.1//EN" "http://www.w3.org/Graphics/SVG/1.1/DTD/svg11.dtd">
<svg version="1.1" xmlns="http://www.w3.org/2000/svg" xmlns:xlink="http://www.w3.org/1999/xlink" x="0px" y="0px" width="128px"
	 height="128px" viewBox="0 0 128 128" enable-background="new 0 0 128 128" xml:space="preserve">
	<path stroke="#000000" stroke-miterlimit="10" d="M39.618,29.759l-2.832-9.175c-0.833-2.32-0.525-2.973,1.795-3.805l15.052-5.402
		c2.32-0.833,2.973-0.525,3.805,1.795l3.617,8.884"/>
	<path stroke="#000000" stroke-miterlimit="10" d="M22.515,61.246l-8.939-3.506c-2.333-0.795-2.651-1.443-1.856-3.776l5.161-15.136
		c0.795-2.333,1.443-2.651,3.776-1.856l9.201,2.711"/>
	<path stroke="#000000" stroke-miterlimit="10" d="M36.47,94.249l-8.314,4.803c-2.076,1.328-2.781,1.173-4.109-0.903L15.43,84.676
		c-1.328-2.076-1.173-2.781,0.903-4.109l7.856-5.503"/>
	<path stroke="#000000" stroke-miterlimit="10" d="M70.974,103.915l-1.429,9.495c-0.256,2.451-0.817,2.906-3.268,2.65
		l-15.905-1.663c-2.451-0.256-2.906-0.817-2.65-3.268l0.595-9.573"/>
	<path stroke="#000000" stroke-miterlimit="10" d="M100.043,82.964l6.533,7.037c1.757,1.729,1.763,2.451,0.034,4.207
		l-11.216,11.399c-1.729,1.757-2.451,1.763-4.207,0.034l-7.114-6.434"/>
	<path stroke="#000000" stroke-miterlimit="10" d="M101.787,47.174l9.575-0.72c2.447-0.296,3.015,0.15,3.311,2.597l1.919,15.876
		c0.296,2.447-0.15,3.015-2.597,3.311l-9.466,1.55"/>
	<path stroke="#000000" stroke-miterlimit="10" d="M74.892,23.497l5.406-7.935c1.294-2.098,1.997-2.264,4.094-0.97l13.609,8.398
		c2.098,1.294,2.264,1.997,0.97,4.094l-4.689,8.367"/>
	<path d="M77.997,58.346c2.775,7.733-1.244,16.251-8.977,19.027s-16.251-1.244-19.027-8.977
		c-2.775-7.733,1.244-16.251,8.977-19.027C66.703,46.594,75.221,50.613,77.997,58.346z M93.924,52.63
		c-5.967-16.626-24.281-25.267-40.907-19.3s-25.267,24.281-19.3,40.907s24.281,25.267,40.907,19.3S99.89,69.256,93.924,52.63z"/>
	<path d="M96.549,51.688c6.487,18.076-2.908,37.988-20.983,44.475C57.49,102.65,37.578,93.255,31.091,75.18
		s2.908-37.988,20.983-44.475S90.062,33.612,96.549,51.688z M49.813,24.404c-21.459,7.701-32.612,31.34-24.911,52.799
		s31.34,32.612,52.799,24.911s32.612-31.34,24.911-52.799S71.272,16.703,49.813,24.404z"/>
</svg>
