<?xml version="1.0" encoding="utf-8"?>
<!DOCTYPE svg PUBLIC "-//W3C//DTD SVG 1.1//EN" "http://www.w3.org/Graphics/SVG/1.1/DTD/svg11.dtd">
<svg version="1.1" xmlns="http://www.w3.org/2000/svg" xmlns:xlink="http://www.w3.org/1999/xlink" x="0px" y="0px" width="128px"
	 height="128px" viewBox="0 0 128 128" enable-background="new 0 0 128 128" xml:space="preserve">
	<path d="M97.467,19h14.298C116.934,99,64,117.891,64,117.891S11.066,99,16.235,19h14.258c0,0,17.31-8.27,33.668-8.168
		C80.519,10.935,97.467,19,97.467,19z M64.107,25.013c-9.165,0.136-19.14,3.428-26.281,6.126c-3.186,1.203-7.487,2.042-7.487,2.042
		c-1.906,53.361,33.768,69.186,33.768,69.186s35.674-15.825,33.768-69.186c0,0-4.301-0.838-7.487-2.042
		C83.247,28.441,73.272,25.15,64.107,25.013z M91.749,62H64.107l-0.015,38.388C83.127,90.382,91.749,62,91.749,62z M36.618,61H62
		V28.961c0,0-5.374,0-9.594,1.225c-4.22,1.225-13.716,5.01-19.328,5.98C33.078,36.166,32.399,44,36.618,61z"/>
</svg>
