<?xml version="1.0" encoding="utf-8"?>
<!DOCTYPE svg PUBLIC "-//W3C//DTD SVG 1.1//EN" "http://www.w3.org/Graphics/SVG/1.1/DTD/svg11.dtd">
<svg version="1.1" xmlns="http://www.w3.org/2000/svg" xmlns:xlink="http://www.w3.org/1999/xlink" x="0px" y="0px" width="128px"
	 height="128px" viewBox="0 0 128 128" enable-background="new 0 0 128 128" xml:space="preserve">
	<path d="M55.09,50.96c0,0,18.116-1.506,18.587,15.481C74.147,83.428,57.442,85.78,47.09,85.31
		c-10.352-0.471-32.232-14.822-30.585-37.644l1.277-8.128l3.639-4.185c0,0,8.369-16.921,27.474-22.015c0,0,1.637-2.729,3.639-2.729
		c2.001,0,3.639,2.183,6.55,2.547s4.003-2.729,6.732-2.547c2.729,0.182,2.911,2.183,5.822,2.729s17.103,2.183,28.565,17.831
		c0,0,0.546,4.003,2.183,4.731c1.637,0.728,5.458,2.365,6.004,3.639c0.546,1.274,4.367,14.919,4.003,20.742
		c-0.364,5.822-2.001,32.932-20.014,41.301l-0.364,4.912c0,0-13.464,12.008-34.024,10.553s-26.096-3.621-30.93-10.189
		c-0.666-0.905-1.637-4.185-1.637-4.185l-1.819-3.821c0,0-1.637-2.729,1.819-2.183c3.457,0.546,16.011,5.458,22.925,5.64
		s10.553-3.457,11.826-3.821c1.274-0.364,8.733-3.275,10.917-3.639c2.183-0.364,15.647-8.602,17.649-28.408
		S72.911,34.99,62.722,34.808c0,0-6.368-0.182-7.824,0.728c-1.456,0.91-10.917,5.276-15.101,5.822c0,0-3.457,3.275-2.911,7.278
		c0.546,4.003,0.546,17.78,15.101,17.805C51.987,66.441,55.463,64.565,55.09,50.96z"/>
</svg>
