<?xml version="1.0" encoding="utf-8"?>
<!DOCTYPE svg PUBLIC "-//W3C//DTD SVG 1.1//EN" "http://www.w3.org/Graphics/SVG/1.1/DTD/svg11.dtd">
<svg version="1.1" xmlns="http://www.w3.org/2000/svg" xmlns:xlink="http://www.w3.org/1999/xlink" x="0px" y="0px" width="128px"
	 height="128px" viewBox="0 0 128 128" enable-background="new 0 0 128 128" xml:space="preserve">
	<path d="M93.728,69.532c0,0,17.151-12.387,21.757-12.387c4.605,0,3.653,1.906,3.494,5.4c0,0,4.786-5.919,0.188-7.464
		c-2.835-0.953-4.485-0.285-5.111,0c-2.979,1.357-14.293,6.511-23.821,14.452S60.219,95.418,44.02,99.547
		c-16.199,4.129-42.402,0.635-41.132-9.052s19.534-19.057,26.204-19.216l0.953,8.893c0,0,1.906,2.065,5.717,2.223
		c3.811,0.159,10.005-0.794,15.087-2.382c5.082-1.588,20.645-9.211,29.856-16.516s13.975-3.97,17.945-5.241
		c3.97-1.27,14.293-6.988,18.104-6.988s10.164,1.27,7.94,6.67c-2.223,5.4-2.7,8.576-12.546,10.64S93.728,69.532,93.728,69.532z"/>
	<path d="M92.616,54.128l-9.687-20.645c0,0,0.953-3.653-2.541-5.241c-3.494-1.588-3.176-1.588-7.782-1.429
		c-4.605,0.159-10.481,1.429-13.181,2.223c-2.7,0.794-15.563,6.035-17.945,6.988c-2.382,0.953-7.307,0.782-8.417,0.953
		c-4.129,0.635-4.729,2.607-4.729,2.607s3.347,1.105,8.583,1c3.575-0.072,27.595-12.225,38.072-11.706
		c5.845,0.289,4.288,1.27,4.288,1.27s-4.764-0.318-11.434,1.27c-6.67,1.588-16.516,5.082-19.534,6.194
		c-3.017,1.112-8.258,3.97-10.799,4.129c-2.541,0.159-8.735-1.112-9.846-0.476c-1.112,0.635-2.223,2.382-1.112,3.97
		s1.906,1.423,2.065,3.487c0.159,2.065-1.271,10.17,0.476,22.557l4.447,1.906c0,0-0.635-2.065,1.112-4.447
		c0,0,0.318,3.335,0.794,4.447c0.476,1.112,9.052,0,10.164-0.953c0,0-0.715-2.938,0.159-5.558c0.873-2.62,2.144,3.176,3.176,4.288
		c0,0,7.385-0.079,11.752-4.447c0,0-1.27-3.573-0.635-5.4c0.635-1.826,3.592,3.256,3.94,3.891
		c0.348,0.635,10.829-3.97,11.385-5.082c0,0-0.476-3.097-1.032-4.208c-0.556-1.112,1.032-1.509,4.844,2.859
		C79.197,58.575,85.946,54.128,92.616,54.128z"/>
</svg>
