<?xml version="1.0" encoding="utf-8"?>
<!DOCTYPE svg PUBLIC "-//W3C//DTD SVG 1.1//EN" "http://www.w3.org/Graphics/SVG/1.1/DTD/svg11.dtd">
<svg version="1.1" xmlns="http://www.w3.org/2000/svg" xmlns:xlink="http://www.w3.org/1999/xlink" x="0px" y="0px" width="128px"
	 height="128px" viewBox="0 0 128 128" enable-background="new 0 0 128 128" xml:space="preserve">
	<path d="M64,11.689l11.582,14.286l2.297,11.601l12.834-12.978l9.186,12.289l5.674,22.559c0,0,4.188,2.431,13.915-4.324
		c0,0,5.404,6.901-10.132,19.195L112.598,90h4.593l0.405,11h-4.728l-15.941,15.59L83.148,103H44.852l-13.78,13.59L15.131,101h-4.728
		l0.405-11h4.593l3.242-15.682C3.108,62.024,8.512,55.365,8.512,55.365c9.727,6.755,13.915,4.203,13.915,4.203l5.674-22.619
		l9.186-12.32l12.834,12.962l2.297-11.609L64,11.689z M71.8,98h5.944c0.135-6-2.252-10.429-2.252-10.429s1.9-0.373,2.636-0.158
		c0.969,0.282,1.732,0.828,2.947,0.377c1.216-0.45,2.207-3.035,2.702-3.845c0.495-0.811-2.342-3.326-2.342-3.326
		c0-1.576,6.575-2.803,6.575-13.61c0-20.624-23.236-20.343-23.236-20.343s-23.236-0.298-23.236,20.326
		c0,10.808,6.575,12.009,6.575,13.586c0,0-2.837,2.47-2.342,3.28c0.495,0.811,1.486,3.306,2.702,3.757
		c1.216,0.45,1.979-0.271,2.947-0.553c0.736-0.215,2.636,0.509,2.636,0.509S51.671,92,51.806,98h14.59c0,0-0.766-5.494,2.769-5.494
		C72.7,92.506,71.8,98,71.8,98z M67.567,72.774l4.098,6.349c0,0,7.499-1.742,8.151-7.498c0.405-3.58-1.897-3.405-3.738-3.265
		C73.715,68.541,68.603,70.793,67.567,72.774z M54.059,68.361c-1.841-0.14-4.143-0.315-3.738,3.265
		c0.652,5.756,8.151,7.498,8.151,7.498l4.098-6.349C61.534,70.793,56.422,68.541,54.059,68.361z M65.281,77.363
		c0,0-3.299,0.637-3.479,9.637h3.512h3.377C68.512,78,65.281,77.363,65.281,77.363z"/>
</svg>
