<?xml version="1.0" encoding="utf-8"?>
<!DOCTYPE svg PUBLIC "-//W3C//DTD SVG 1.1//EN" "http://www.w3.org/Graphics/SVG/1.1/DTD/svg11.dtd">
<svg version="1.1" xmlns="http://www.w3.org/2000/svg" xmlns:xlink="http://www.w3.org/1999/xlink" x="0px" y="0px" width="128px"
	 height="128px" viewBox="0 0 128 128" enable-background="new 0 0 128 128" xml:space="preserve">
	<path d="M56.167,105H6.605c0,0-2.609-0.777,0-5.435c2.609-4.658,30.371-51.627,30.371-51.627s2.236-2.523,4.658-0.101
		c2.422,2.422,29.253,27.826,29.253,27.826l-25.713,9.352c0,0-3.726,1.515-1.491,4.124C45.919,91.747,56.167,105,56.167,105z"/>
	<path d="M49.337,88.013L68.837,105h11.552l11.179-16.987c0,0,1.491-3.99,3.726,0.109S104.797,105,104.797,105h15.465
		c0,0,3.726-0.777,1.677-5.062s-18.632-35.047-18.632-35.047s-3.011-5.641-6.644-0.054L93,68.697v2.515L49.337,88.013z"/>
	<path d="M92.127,68.045l-12.484,4.658L48.341,49.786L64,25.377c0,0,4.091-5.403,6.886,0
		C73.681,30.781,92.127,68.045,92.127,68.045z"/>
</svg>
